<svg width="858" height="100" viewBox="0 0 858 100" fill="none" xmlns="http://www.w3.org/2000/svg">
<path d="M105.196 100C98.7987 100 93.0327 98.569 87.8981 95.7071C82.7634 92.8451 78.723 88.7626 75.7769 83.4596C72.9149 78.0724 71.4839 71.8013 71.4839 64.6465C71.4839 57.5758 72.957 51.3889 75.9031 46.0859C78.8492 40.6987 82.8897 36.6162 88.0243 33.8384C93.2432 30.9764 99.0513 29.5455 105.449 29.5455C111.846 29.5455 117.612 30.9764 122.747 33.8384C127.881 36.6162 131.88 40.6566 134.741 45.9596C137.688 51.2626 139.161 57.4916 139.161 64.6465C139.161 71.8013 137.688 78.0724 134.741 83.4596C131.795 88.7626 127.713 92.8451 122.494 95.7071C117.359 98.569 111.593 100 105.196 100ZM105.196 94.9495C110.162 94.9495 114.792 93.8552 119.085 91.6667C123.462 89.3939 126.955 85.9848 129.565 81.4394C132.174 76.8939 133.479 71.2963 133.479 64.6465C133.479 58.0808 132.174 52.5253 129.565 47.9798C126.955 43.4343 123.504 40.0673 119.211 37.8788C114.918 35.6061 110.289 34.4697 105.322 34.4697C100.356 34.4697 95.7263 35.6061 91.4334 37.8788C87.2247 40.0673 83.8156 43.4343 81.2061 47.9798C78.5967 52.5253 77.292 58.0808 77.292 64.6465C77.292 71.2963 78.5546 76.8939 81.0799 81.4394C83.6893 85.9848 87.0984 89.3939 91.3072 91.6667C95.6001 93.8552 100.23 94.9495 105.196 94.9495Z" fill="#213A57"/>
<path d="M224.834 29.0404C232.662 29.0404 239.059 31.5657 244.026 36.6162C248.992 41.5825 251.475 48.9899 251.475 58.8384V98.9899H245.92V59.2172C245.92 51.0522 243.942 44.8232 239.985 40.5303C236.113 36.1532 230.768 33.9646 223.95 33.9646C216.879 33.9646 211.197 36.4057 206.905 41.2879C202.612 46.17 200.465 53.2407 200.465 62.5V98.9899H194.91V59.2172C194.91 51.0522 192.931 44.8232 188.975 40.5303C185.103 36.1532 179.758 33.9646 172.94 33.9646C165.869 33.9646 160.187 36.4057 155.894 41.2879C151.601 46.17 149.455 53.2407 149.455 62.5V98.9899H143.773V30.4293H149.455V45.3283C151.391 39.9411 154.506 35.9007 158.798 33.2071C163.176 30.4293 168.184 29.0404 173.824 29.0404C180.053 29.0404 185.398 30.6818 189.859 33.9646C194.405 37.1633 197.519 41.9192 199.202 48.2323C200.802 41.9192 203.916 37.1633 208.546 33.9646C213.176 30.6818 218.605 29.0404 224.834 29.0404Z" fill="#213A57"/>
<path d="M340.073 29.0404C347.901 29.0404 354.299 31.5657 359.265 36.6162C364.231 41.5825 366.715 48.9899 366.715 58.8384V98.9899H361.159V59.2172C361.159 51.0522 359.181 44.8232 355.225 40.5303C351.353 36.1532 346.007 33.9646 339.189 33.9646C332.119 33.9646 326.437 36.4057 322.144 41.2879C317.851 46.17 315.704 53.2407 315.704 62.5V98.9899H310.149V59.2172C310.149 51.0522 308.171 44.8232 304.215 40.5303C300.342 36.1532 294.997 33.9646 288.179 33.9646C281.108 33.9646 275.427 36.4057 271.134 41.2879C266.841 46.17 264.694 53.2407 264.694 62.5V98.9899H259.013V30.4293H264.694V45.3283C266.63 39.9411 269.745 35.9007 274.038 33.2071C278.415 30.4293 283.423 29.0404 289.063 29.0404C295.292 29.0404 300.637 30.6818 305.098 33.9646C309.644 37.1633 312.758 41.9192 314.442 48.2323C316.041 41.9192 319.156 37.1633 323.785 33.9646C328.415 30.6818 333.844 29.0404 340.073 29.0404Z" fill="#213A57"/>
<path d="M435.994 60.101C435.994 63.1313 435.91 65.404 435.742 66.9192H376.525C376.693 73.064 378.04 78.2407 380.565 82.4495C383.09 86.6582 386.415 89.8148 390.54 91.9192C394.664 94.0236 399.168 95.0758 404.05 95.0758C410.784 95.0758 416.424 93.4343 420.969 90.1515C425.514 86.7845 428.376 82.2391 429.555 76.5152H435.489C434.142 83.5017 430.691 89.1835 425.136 93.5606C419.58 97.8535 412.551 100 404.05 100C397.652 100 391.929 98.569 386.878 95.7071C381.828 92.8451 377.871 88.7626 375.009 83.4596C372.147 78.0724 370.716 71.8013 370.716 64.6465C370.716 57.4916 372.105 51.2626 374.883 45.9596C377.745 40.6566 381.701 36.6162 386.752 33.8384C391.802 30.9764 397.568 29.5455 404.05 29.5455C410.615 29.5455 416.297 30.9764 421.095 33.8384C425.977 36.6162 429.681 40.362 432.206 45.0758C434.732 49.7054 435.994 54.7138 435.994 60.101ZM430.312 62.2475C430.565 56.1869 429.471 51.0522 427.03 46.8434C424.673 42.6347 421.432 39.5202 417.307 37.5C413.183 35.3956 408.721 34.3434 403.923 34.3434C399.126 34.3434 394.664 35.3956 390.54 37.5C386.499 39.5202 383.174 42.6347 380.565 46.8434C378.04 51.0522 376.693 56.1869 376.525 62.2475H430.312Z" fill="#213A57"/>
<path d="M446.221 44.5707C447.905 39.5202 450.893 35.6902 455.186 33.0808C459.479 30.3872 464.95 29.0404 471.6 29.0404V34.9747H469.706C462.972 34.9747 457.375 36.9108 452.913 40.7828C448.452 44.5707 446.221 50.7997 446.221 59.4697V98.9899H440.54V30.4293H446.221V44.5707Z" fill="#213A57"/>
<path d="M468.521 64.6465C468.521 57.4916 469.91 51.2626 472.687 45.9596C475.549 40.6566 479.463 36.6162 484.43 33.8384C489.48 30.9764 495.246 29.5455 501.728 29.5455C510.314 29.5455 517.342 31.6919 522.814 35.9848C528.369 40.2778 531.82 46.0438 533.167 53.2828H527.233C526.138 47.3906 523.277 42.7609 518.647 39.3939C514.101 36.0269 508.462 34.3434 501.728 34.3434C496.677 34.3434 492.09 35.4798 487.965 37.7525C483.841 39.9411 480.516 43.3502 477.99 47.9798C475.549 52.5253 474.329 58.0808 474.329 64.6465C474.329 71.2963 475.549 76.8939 477.99 81.4394C480.516 85.9848 483.841 89.3939 487.965 91.6667C492.09 93.9394 496.677 95.0758 501.728 95.0758C508.462 95.0758 514.101 93.3923 518.647 90.0253C523.277 86.6582 526.138 82.0286 527.233 76.1364H533.167C531.82 83.2913 528.369 89.0572 522.814 93.4343C517.258 97.8115 510.229 100 501.728 100C495.246 100 489.48 98.569 484.43 95.7071C479.463 92.8451 475.549 88.7626 472.687 83.4596C469.91 78.0724 468.521 71.8013 468.521 64.6465Z" fill="#213A57"/>
<path d="M599.593 60.101C599.593 63.1313 599.509 65.404 599.341 66.9192H540.123C540.292 73.064 541.639 78.2407 544.164 82.4495C546.689 86.6582 550.014 89.8148 554.138 91.9192C558.263 94.0236 562.766 95.0758 567.649 95.0758C574.383 95.0758 580.022 93.4343 584.568 90.1515C589.113 86.7845 591.975 82.2391 593.154 76.5152H599.088C597.741 83.5017 594.29 89.1835 588.734 93.5606C583.179 97.8535 576.15 100 567.649 100C561.251 100 555.527 98.569 550.477 95.7071C545.426 92.8451 541.47 88.7626 538.608 83.4596C535.746 78.0724 534.315 71.8013 534.315 64.6465C534.315 57.4916 535.704 51.2626 538.482 45.9596C541.344 40.6566 545.3 36.6162 550.351 33.8384C555.401 30.9764 561.167 29.5455 567.649 29.5455C574.214 29.5455 579.896 30.9764 584.694 33.8384C589.576 36.6162 593.28 40.362 595.805 45.0758C598.33 49.7054 599.593 54.7138 599.593 60.101ZM593.911 62.2475C594.164 56.1869 593.069 51.0522 590.628 46.8434C588.272 42.6347 585.031 39.5202 580.906 37.5C576.782 35.3956 572.32 34.3434 567.522 34.3434C562.724 34.3434 558.263 35.3956 554.138 37.5C550.098 39.5202 546.773 42.6347 544.164 46.8434C541.639 51.0522 540.292 56.1869 540.123 62.2475H593.911Z" fill="#213A57"/>
<path d="M10.3415 88.5667C24.0384 102.195 46.1406 102.3 59.7082 88.7995C63.5978 84.9292 66.8999 80.5564 67.6463 74.5975C67.8528 72.9486 67.9223 71.9299 67.8837 71.4815C66.7712 75.2002 64.3634 78.8028 61.3202 81.8309C50.652 92.446 33.5251 92.6153 23.0663 82.2085C12.6076 71.8018 12.7775 54.7602 23.4458 44.145C31.9618 35.6713 45.4181 34.0457 55.4879 38.9507C54.8615 37.363 53.2579 35.861 52.5372 35.1862L52.5347 35.1838C50.2434 33.0379 47.1444 31.6956 47.1444 31.6956C34.3 25.9639 20.5697 29.0354 10.1077 39.4454C-3.46002 52.9456 -3.35532 74.9378 10.3415 88.5667Z" fill="#213A57"/>
<path d="M46.566 74.5169C40.3957 80.657 30.4451 80.7104 24.341 74.6366C18.237 68.5632 18.2909 58.6621 24.4614 52.5223C29.1381 47.8689 36.0933 46.451 41.2967 49.3165C46.4997 52.1819 51.6558 51.3472 54.6984 48.3198C57.07 45.96 56.8589 42.4244 55.4879 38.9507C45.4181 34.0457 31.9618 35.6713 23.4458 44.145C12.7775 54.7602 12.6076 71.8018 23.0663 82.2085C33.5251 92.6153 50.652 92.446 61.3202 81.8309C64.3634 78.8028 66.7712 75.2002 67.8837 71.4815C67.3906 65.7145 63.5522 61.2111 58.8573 61.1721C53.7974 61.1301 51.7453 64.1332 50.7839 67.0609C50.1196 69.7885 48.7132 72.3804 46.566 74.5169Z" fill="#0AD1C8"/>
<path fill-rule="evenodd" clip-rule="evenodd" d="M602.932 63.7626C602.932 56.4394 604.405 50.0421 607.351 44.5707C610.381 39.0993 614.548 34.8906 619.851 31.9444C625.238 28.9983 631.383 27.5252 638.286 27.5252C647.124 27.5252 654.489 29.8401 660.381 34.4697C665.378 38.3403 668.933 43.5346 671.047 50.0528V28.5354H692.638V40.2778C695.163 36.4057 698.319 33.3754 702.107 31.1869C705.895 28.9141 710.104 27.7778 714.734 27.7778V40.2749C717.124 36.8431 720.017 34.0663 723.412 31.9444C728.126 28.9983 733.387 27.5252 739.195 27.5252C744.161 27.5252 748.496 28.5354 752.2 30.5556C755.988 32.5758 758.892 35.2273 760.912 38.5101V28.5354H779.815H782.503H787.643V26.5152C787.643 17.8451 790.127 11.2795 795.093 6.81818C800.059 2.27273 807.34 0 816.936 0C818.536 0 819.714 0.042087 820.472 0.126261V18.4343C816.347 18.1818 813.443 18.771 811.76 20.202C810.076 21.633 809.234 24.2003 809.234 27.904V28.5354H813.193H820.85H821.779V11.3636H843.37V28.5354H857.511V46.4646H843.37V74.7475C843.37 76.8519 843.875 78.367 844.885 79.2929C845.895 80.2189 847.578 80.6818 849.935 80.6818H857.637V98.9899H846.652C838.824 98.9899 832.721 97.096 828.344 93.3081C823.967 89.436 821.779 83.165 821.779 74.4949V46.4646H820.85H813.193H809.234V98.9899H787.643V46.4646H782.503V98.9899H760.912V89.0152C758.808 92.298 755.862 94.9495 752.074 96.9697C748.37 98.9899 744.035 100 739.069 100C733.345 100 728.126 98.5269 723.412 95.5808C718.698 92.5505 714.953 88.2997 712.175 82.8283C709.481 77.2727 708.134 70.8754 708.134 63.6364C708.134 58.9274 708.704 54.5923 709.844 50.6313H708.799C703.412 50.6313 699.372 51.8098 696.678 54.1667C693.984 56.4394 692.638 60.4798 692.638 66.2879V98.9899H671.047V77.3998C668.933 83.8119 665.378 88.9884 660.381 92.9293C654.405 97.6431 647.04 100 638.286 100C631.383 100 625.238 98.5269 619.851 95.5808C614.548 92.6347 610.381 88.4259 607.351 82.9545C604.405 77.4832 602.932 71.0859 602.932 63.7626ZM637.907 45.9596C643.462 45.9596 647.208 48.6532 649.144 54.0404H671.047V73.4848H649.144C647.208 78.8721 643.462 81.5657 637.907 81.5657C633.951 81.5657 630.794 80.0505 628.437 77.0202C626.08 73.9057 624.902 69.4865 624.902 63.7626C624.902 58.0387 626.08 53.6616 628.437 50.6313C630.794 47.5168 633.951 45.9596 637.907 45.9596ZM756.367 51.0101C759.397 54.1246 760.912 58.3754 760.912 63.7626C760.912 69.1498 759.397 73.4007 756.367 76.5152C753.421 79.6296 749.801 81.1869 745.508 81.1869C741.215 81.1869 737.554 79.6296 734.523 76.5152C731.577 73.3165 730.104 69.0236 730.104 63.6364C730.104 58.2492 731.577 54.0404 734.523 51.0101C737.554 47.8956 741.215 46.3384 745.508 46.3384C749.801 46.3384 753.421 47.8956 756.367 51.0101Z" fill="#0AD1C8"/>
</svg>
