<svg width="400" height="47" viewBox="0 0 400 47" fill="none" xmlns="http://www.w3.org/2000/svg">
<path d="M49.0632 46.6398C46.0795 46.6398 43.3903 45.9724 40.9954 44.6376C38.6006 43.3027 36.7162 41.3987 35.3421 38.9254C34.0073 36.4128 33.3399 33.488 33.3399 30.151C33.3399 26.8532 34.027 23.9677 35.401 21.4943C36.7751 18.9818 38.6595 17.0777 41.0543 15.7821C43.4884 14.4473 46.1973 13.7799 49.181 13.7799C52.1647 13.7799 54.8539 14.4473 57.2487 15.7821C59.6435 17.0777 61.5083 18.9621 62.8431 21.4354C64.2172 23.9088 64.9042 26.8139 64.9042 30.151C64.9042 33.488 64.2172 36.4128 62.8431 38.9254C61.469 41.3987 59.565 43.3027 57.1309 44.6376C54.7361 45.9724 52.0469 46.6398 49.0632 46.6398ZM49.0632 44.2842C51.3795 44.2842 53.5387 43.7739 55.5409 42.7531C57.5824 41.6931 59.2117 40.1031 60.4287 37.9831C61.6457 35.8632 62.2542 33.2524 62.2542 30.151C62.2542 27.0888 61.6457 24.4977 60.4287 22.3777C59.2117 20.2577 57.602 18.6873 55.5998 17.6666C53.5976 16.6066 51.4384 16.0766 49.1221 16.0766C46.8058 16.0766 44.6465 16.6066 42.6443 17.6666C40.6814 18.6873 39.0914 20.2577 37.8744 22.3777C36.6573 24.4977 36.0488 27.0888 36.0488 30.151C36.0488 33.2524 36.6377 35.8632 37.8155 37.9831C39.0325 40.1031 40.6225 41.6931 42.5854 42.7531C44.5877 43.7739 46.7469 44.2842 49.0632 44.2842Z" fill="white"/>
<path d="M104.862 13.5444C108.513 13.5444 111.497 14.7221 113.813 17.0777C116.129 19.394 117.287 22.8488 117.287 27.4421V46.1687H114.696V27.6187C114.696 23.8106 113.774 20.9055 111.929 18.9032C110.123 16.8618 107.63 15.841 104.45 15.841C101.152 15.841 98.502 16.9795 96.4998 19.2566C94.4976 21.5336 93.4965 24.8314 93.4965 29.1499V46.1687H90.9054V27.6187C90.9054 23.8106 89.9828 20.9055 88.1376 18.9032C86.3317 16.8618 83.8387 15.841 80.6588 15.841C77.361 15.841 74.711 16.9795 72.7088 19.2566C70.7066 21.5336 69.7055 24.8314 69.7055 29.1499V46.1687H67.0555V14.1922H69.7055V21.141C70.6084 18.6284 72.061 16.744 74.0632 15.4877C76.1047 14.1922 78.4406 13.5444 81.071 13.5444C83.9761 13.5444 86.4691 14.3099 88.5498 15.841C90.6698 17.3329 92.1224 19.551 92.9076 22.4954C93.6535 19.551 95.1061 17.3329 97.2653 15.841C99.4246 14.3099 101.957 13.5444 104.862 13.5444Z" fill="white"/>
<path d="M158.609 13.5444C162.26 13.5444 165.244 14.7221 167.56 17.0777C169.877 19.394 171.035 22.8488 171.035 27.4421V46.1687H168.444V27.6187C168.444 23.8106 167.521 20.9055 165.676 18.9032C163.87 16.8618 161.377 15.841 158.197 15.841C154.899 15.841 152.249 16.9795 150.247 19.2566C148.245 21.5336 147.244 24.8314 147.244 29.1499V46.1687H144.653V27.6187C144.653 23.8106 143.73 20.9055 141.885 18.9032C140.079 16.8618 137.586 15.841 134.406 15.841C131.108 15.841 128.458 16.9795 126.456 19.2566C124.454 21.5336 123.453 24.8314 123.453 29.1499V46.1687H120.803V14.1922H123.453V21.141C124.356 18.6284 125.808 16.744 127.811 15.4877C129.852 14.1922 132.188 13.5444 134.818 13.5444C137.723 13.5444 140.216 14.3099 142.297 15.841C144.417 17.3329 145.87 19.551 146.655 22.4954C147.401 19.551 148.853 17.3329 151.013 15.841C153.172 14.3099 155.704 13.5444 158.609 13.5444Z" fill="white"/>
<path d="M203.347 28.031C203.347 29.4443 203.307 30.5043 203.229 31.211H175.61C175.689 34.0769 176.317 36.4913 177.495 38.4543C178.672 40.4172 180.223 41.8894 182.147 42.8709C184.07 43.8524 186.171 44.3431 188.448 44.3431C191.589 44.3431 194.219 43.5776 196.339 42.0465C198.459 40.4761 199.794 38.3561 200.343 35.6865H203.111C202.483 38.945 200.873 41.595 198.282 43.6364C195.691 45.6387 192.413 46.6398 188.448 46.6398C185.464 46.6398 182.795 45.9724 180.439 44.6376C178.083 43.3027 176.238 41.3987 174.904 38.9254C173.569 36.4128 172.901 33.488 172.901 30.151C172.901 26.8139 173.549 23.9088 174.845 21.4354C176.179 18.9621 178.025 17.0777 180.38 15.7821C182.736 14.4473 185.425 13.7799 188.448 13.7799C191.51 13.7799 194.16 14.4473 196.398 15.7821C198.675 17.0777 200.402 18.8247 201.58 21.0232C202.758 23.1825 203.347 25.5184 203.347 28.031ZM200.697 29.0321C200.814 26.2054 200.304 23.8106 199.166 21.8477C198.066 19.8847 196.555 18.4321 194.631 17.4899C192.707 16.5084 190.627 16.0177 188.389 16.0177C186.151 16.0177 184.07 16.5084 182.147 17.4899C180.262 18.4321 178.712 19.8847 177.495 21.8477C176.317 23.8106 175.689 26.2054 175.61 29.0321H200.697Z" fill="white"/>
<path d="M208.117 20.7877C208.902 18.4321 210.296 16.6458 212.298 15.4288C214.3 14.1725 216.852 13.5444 219.953 13.5444V16.3121H219.07C215.929 16.3121 213.318 17.2151 211.238 19.021C209.157 20.7877 208.117 23.6928 208.117 27.7365V46.1687H205.467V14.1922H208.117V20.7877Z" fill="white"/>
<path d="M218.517 30.151C218.517 26.8139 219.165 23.9088 220.46 21.4354C221.795 18.9621 223.621 17.0777 225.937 15.7821C228.292 14.4473 230.982 13.7799 234.005 13.7799C238.009 13.7799 241.287 14.781 243.839 16.7832C246.43 18.7855 248.04 21.4747 248.668 24.851H245.9C245.39 22.1029 244.055 19.9436 241.896 18.3732C239.776 16.8029 237.145 16.0177 234.005 16.0177C231.649 16.0177 229.509 16.5477 227.586 17.6077C225.662 18.6284 224.111 20.2184 222.934 22.3777C221.795 24.4977 221.226 27.0888 221.226 30.151C221.226 33.2524 221.795 35.8632 222.934 37.9831C224.111 40.1031 225.662 41.6931 227.586 42.7531C229.509 43.8131 231.649 44.3431 234.005 44.3431C237.145 44.3431 239.776 43.5579 241.896 41.9876C244.055 40.4172 245.39 38.258 245.9 35.5098H248.668C248.04 38.8468 246.43 41.5361 243.839 43.5776C241.248 45.619 237.97 46.6398 234.005 46.6398C230.982 46.6398 228.292 45.9724 225.937 44.6376C223.621 43.3027 221.795 41.3987 220.46 38.9254C219.165 36.4128 218.517 33.488 218.517 30.151Z" fill="white"/>
<path d="M279.649 28.031C279.649 29.4443 279.61 30.5043 279.531 31.211H251.912C251.991 34.0769 252.619 36.4913 253.797 38.4543C254.974 40.4172 256.525 41.8894 258.449 42.8709C260.373 43.8524 262.473 44.3431 264.75 44.3431C267.891 44.3431 270.521 43.5776 272.641 42.0465C274.761 40.4761 276.096 38.3561 276.645 35.6865H279.413C278.785 38.945 277.175 41.595 274.584 43.6364C271.993 45.6387 268.715 46.6398 264.75 46.6398C261.766 46.6398 259.097 45.9724 256.741 44.6376C254.386 43.3027 252.54 41.3987 251.206 38.9254C249.871 36.4128 249.203 33.488 249.203 30.151C249.203 26.8139 249.851 23.9088 251.147 21.4354C252.482 18.9621 254.327 17.0777 256.682 15.7821C259.038 14.4473 261.727 13.7799 264.75 13.7799C267.812 13.7799 270.462 14.4473 272.7 15.7821C274.977 17.0777 276.704 18.8247 277.882 21.0232C279.06 23.1825 279.649 25.5184 279.649 28.031ZM276.999 29.0321C277.117 26.2054 276.606 23.8106 275.468 21.8477C274.368 19.8847 272.857 18.4321 270.933 17.4899C269.01 16.5084 266.929 16.0177 264.691 16.0177C262.453 16.0177 260.373 16.5084 258.449 17.4899C256.564 18.4321 255.014 19.8847 253.797 21.8477C252.619 23.8106 251.991 26.2054 251.912 29.0321H276.999Z" fill="white"/>
<path d="M4.82326 41.3073C11.2114 47.6636 21.5199 47.7123 27.8478 41.4159C29.6619 39.6108 31.202 37.5713 31.5501 34.7921C31.6464 34.023 31.6788 33.5479 31.6608 33.3388C31.1419 35.0732 30.019 36.7534 28.5996 38.1658C23.624 43.1166 15.636 43.1955 10.7581 38.3419C5.88015 33.4882 5.95939 25.54 10.935 20.5891C14.9069 16.637 21.1829 15.8788 25.8794 18.1665C25.5873 17.426 24.8394 16.7255 24.5032 16.4108L24.5021 16.4096C23.4334 15.4088 21.988 14.7828 21.988 14.7828C15.9974 12.1095 9.59368 13.542 4.71419 18.3973C-1.61375 24.6937 -1.56491 34.9508 4.82326 41.3073Z" fill="white"/>
<path d="M21.7183 34.7545C18.8404 37.6182 14.1995 37.6431 11.3526 34.8103C8.5057 31.9777 8.53085 27.3599 11.4087 24.4963C13.5899 22.326 16.8338 21.6646 19.2607 23.0011C21.6874 24.3375 24.0922 23.9482 25.5112 22.5363C26.6173 21.4356 26.5188 19.7866 25.8794 18.1665C21.1829 15.8788 14.9069 16.637 10.935 20.5891C5.95939 25.54 5.88015 33.4882 10.7581 38.3419C15.636 43.1955 23.624 43.1166 28.5996 38.1658C30.019 36.7534 31.1419 35.0732 31.6608 33.3388C31.4308 30.6491 29.6406 28.5487 27.4509 28.5305C25.091 28.5109 24.1339 29.9116 23.6855 31.277C23.3757 32.5492 22.7197 33.7581 21.7183 34.7545Z" fill="white"/>
<path fill-rule="evenodd" clip-rule="evenodd" d="M281.206 29.7387C281.206 26.3232 281.893 23.3395 283.267 20.7877C284.68 18.2358 286.624 16.2729 289.097 14.8988C291.61 13.5247 294.476 12.8377 297.695 12.8377C301.817 12.8377 305.252 13.9173 308 16.0766C310.331 17.8818 311.989 20.3045 312.975 23.3445V13.3088H323.045V18.7855C324.222 16.9795 325.695 15.5662 327.461 14.5455C329.228 13.4855 331.191 12.9555 333.35 12.9555V18.7841C334.465 17.1835 335.814 15.8884 337.398 14.8988C339.596 13.5247 342.05 12.8377 344.759 12.8377C347.075 12.8377 349.097 13.3088 350.824 14.251C352.591 15.1933 353.945 16.4299 354.888 17.961V13.3088H363.704H364.958H367.355V12.3666C367.355 8.32292 368.513 5.26071 370.829 3.17998C373.146 1.05999 376.542 0 381.017 0C381.763 0 382.313 0.0196293 382.666 0.0588878V8.59774C380.742 8.47996 379.388 8.75477 378.603 9.42218C377.818 10.0896 377.425 11.287 377.425 13.0144V13.3088H379.271H382.843H383.276V5.29997H393.346V13.3088H399.941V21.671H393.346V34.862C393.346 35.8435 393.581 36.5502 394.052 36.982C394.523 37.4139 395.309 37.6298 396.408 37.6298H400V46.1687H394.877C391.226 46.1687 388.379 45.2853 386.338 43.5187C384.296 41.7127 383.276 38.788 383.276 34.7443V21.671H382.843H379.271H377.425V46.1687H367.355V21.671H364.958V46.1687H354.888V41.5165C353.906 43.0476 352.532 44.2842 350.765 45.2264C349.038 46.1687 347.016 46.6398 344.7 46.6398C342.03 46.6398 339.596 45.9527 337.398 44.5787C335.199 43.1653 333.452 41.1828 332.157 38.6309C330.9 36.0398 330.272 33.0561 330.272 29.6798C330.272 27.4836 330.538 25.4617 331.07 23.6143H330.582C328.07 23.6143 326.185 24.164 324.929 25.2632C323.673 26.3232 323.045 28.2076 323.045 30.9165V46.1687H312.975V36.0991C311.989 39.0896 310.331 41.504 308 43.342C305.213 45.5405 301.778 46.6398 297.695 46.6398C294.476 46.6398 291.61 45.9527 289.097 44.5787C286.624 43.2046 284.68 41.2416 283.267 38.6898C281.893 36.138 281.206 33.1543 281.206 29.7387ZM297.518 21.4354C300.109 21.4354 301.856 22.6917 302.759 25.2043H312.975V34.2732H302.759C301.856 36.7857 300.109 38.042 297.518 38.042C295.673 38.042 294.201 37.3354 293.102 35.922C292.002 34.4695 291.453 32.4084 291.453 29.7387C291.453 27.0691 292.002 25.0277 293.102 23.6143C294.201 22.1617 295.673 21.4354 297.518 21.4354ZM352.768 23.791C354.181 25.2436 354.888 27.2262 354.888 29.7387C354.888 32.2513 354.181 34.2339 352.768 35.6865C351.394 37.1391 349.705 37.8654 347.703 37.8654C345.701 37.8654 343.993 37.1391 342.58 35.6865C341.206 34.1946 340.519 32.1924 340.519 29.6798C340.519 27.1673 341.206 25.2043 342.58 23.791C343.993 22.3384 345.701 21.6121 347.703 21.6121C349.705 21.6121 351.394 22.3384 352.768 23.791Z" fill="white"/>
</svg>
