<?xml version="1.0" encoding="UTF-8"?>
<svg id="Capa_1" data-name="Capa 1" xmlns="http://www.w3.org/2000/svg" viewBox="0 0 1000 1000">
  <defs>
    <style>
      .cls-1 {
        fill: #223a57;
      }

      .cls-2 {
        fill: #49bbbb;
      }
    </style>
  </defs>
  <path class="cls-1" d="m212.07,798.39c170.48,169.63,445.58,170.93,614.45,2.9,48.41-48.17,89.51-102.6,98.8-176.77,2.57-20.52,3.44-33.2,2.95-38.78-13.85,46.29-43.82,91.13-81.69,128.82-132.78,132.12-345.96,134.23-476.13,4.7-130.18-129.53-128.06-341.64,4.72-473.77,106-105.47,273.48-125.7,398.82-64.65-7.8-19.76-27.76-38.46-36.73-46.86l-.03-.03c-28.52-26.71-67.09-43.42-67.09-43.42C510.28,19.19,339.38,57.42,209.16,186.99c-168.87,168.03-167.57,441.76,2.91,611.4Z"/>
  <path class="cls-2" d="m662.95,623.52c-76.8,76.42-200.65,77.09-276.63,1.49-75.97-75.59-75.3-198.83,1.5-275.25,58.21-57.92,144.78-75.57,209.54-39.9,64.76,35.66,128.94,25.28,166.81-12.41,29.52-29.37,26.89-73.38,9.83-116.61-125.34-61.05-292.82-40.82-398.82,64.65-132.79,132.12-134.9,344.24-4.72,473.77,130.18,129.53,343.35,127.42,476.13-4.7,37.88-37.69,67.85-82.53,81.69-128.82-6.14-71.78-53.91-127.83-112.35-128.32-62.98-.52-88.52,36.86-100.49,73.3-8.27,33.95-25.77,66.21-52.5,92.8Z"/>
</svg>